<?xml version="1.0" encoding="utf-8"?>
<!-- Generator: Adobe Illustrator 19.0.0, SVG Export Plug-In . SVG Version: 6.00 Build 0)  -->
<svg version="1.1" id="图层_1" xmlns="http://www.w3.org/2000/svg" xmlns:xlink="http://www.w3.org/1999/xlink" x="0px" y="0px"
	 viewBox="-191 387.9 212 66" style="enable-background:new -191 387.9 212 66;" xml:space="preserve">
<style type="text/css">
	.st0{fill:none;enable-background:new    ;}
	.st1{fill:#FFFFFF;}
	.st2{fill:#F4CC1F;}
</style>
<path class="st0" d="z"/>
<path class="st1" d="M-169.9,437.5c0,0.1-0.1,0.2-0.1,0.3c-0.2,0.4-0.3,0.9-0.4,1.4c0.1-0.5,0.3-0.9,0.4-1.4
	C-169.9,437.7-169.9,437.6-169.9,437.5z"/>
<path class="st1" d="M-164,426.3c0,0-0.1,0.1-0.1,0.1c-0.6,0.8-1.2,1.7-1.7,2.5c0.5-0.9,1.1-1.7,1.7-2.5
	C-164,426.4-164,426.3-164,426.3z"/>
<path class="st1" d="M-154.2,416.5c1.1-0.8,2.3-1.6,3.5-2.3C-151.9,415-153.1,415.7-154.2,416.5z"/>
<path class="st1" d="M-158.5,420.1c-1.4,1.3-2.7,2.7-4,4.2c-0.1,0.1-0.2,0.2-0.2,0.3c0.1-0.1,0.2-0.2,0.2-0.3
	C-161.2,422.8-159.9,421.4-158.5,420.1z"/>
<path class="st1" d="M-155.1,421.6c-2.2,1.9-4.1,4.1-5.6,6.3c-3.6,5.4-5.5,11.4-6.4,17.4c2.1-6.6,10.1-26.4,33.4-33.1
	c-3.6,0.5-7.1,1.5-10.4,2.8C-148.2,416.7-151.9,418.9-155.1,421.6z"/>
<path class="st1" d="M-128.4,404c-0.7,0-1.4,0-2.1,0c-0.1,0-0.2,0-0.4,0c-0.1,0-0.2,0-0.4,0c-1.6,0.1-3.2,0.3-4.7,0.5
	c-0.1,0-0.2,0-0.4,0.1c-0.1,0-0.2,0-0.4,0.1c-1.4,0.2-2.7,0.5-4.1,0.9c-0.1,0-0.2,0.1-0.4,0.1c-0.1,0-0.2,0.1-0.4,0.1
	c-2.5,0.7-4.8,1.6-7.1,2.6c-0.1,0.1-0.2,0.1-0.3,0.2c-0.1,0.1-0.2,0.1-0.3,0.2c-1.3,0.6-2.5,1.3-3.7,2c-0.1,0.1-0.2,0.1-0.3,0.2
	c-0.1,0.1-0.2,0.1-0.3,0.2c-1,0.6-2,1.3-3,2c-0.1,0.1-0.2,0.1-0.3,0.2c-0.1,0.1-0.2,0.1-0.3,0.2c-1.1,0.8-2.2,1.7-3.2,2.6
	c-0.1,0.1-0.2,0.2-0.3,0.2c-0.1,0.1-0.2,0.2-0.3,0.2c-1.4,1.3-2.8,2.7-4,4.1c-0.1,0.1-0.2,0.2-0.2,0.3s-0.2,0.2-0.2,0.3
	c-0.9,1.1-1.7,2.1-2.5,3.3c-0.1,0.1-0.1,0.2-0.2,0.3c-0.1,0.1-0.1,0.2-0.2,0.3c-1.6,2.3-3,4.8-4.1,7.4c0,0.1-0.1,0.2-0.1,0.3
	c0,0.1-0.1,0.2-0.1,0.3c-0.5,1.3-1,2.6-1.5,3.9c0,0.1-0.1,0.2-0.1,0.3c0,0.1-0.1,0.2-0.1,0.4c-1.1,3.6-1.9,7.4-2.1,11.4
	c0,0.1,0,0.2,0,0.4c0,0.1,0,0.2,0,0.4c0,0.8-0.1,1.5-0.1,2.3c0,0.6,0,1.2,0,1.8h3.4h0.4h0.4h33.5c6.8,0,12.3-5.5,12.3-12.3v-33.3
	v-0.4v-0.4v-3.4C-127.1,404-127.8,404-128.4,404z M-130.4,441.5c0,2.4-1,4.5-2.5,6c0,0,0,0,0,0c-0.3,0.3-0.5,0.5-0.8,0.7
	c-0.1,0.1-0.2,0.1-0.3,0.2c-0.5,0.3-1,0.6-1.6,0.8c-0.2,0.1-0.4,0.2-0.6,0.2c-0.2,0.1-0.4,0.1-0.6,0.2c-0.2,0-0.3,0.1-0.5,0.1
	c-0.5,0.1-0.9,0.1-1.4,0.1h-33.5v0c0,0,0,0,0,0c0,0,0-0.1,0-0.1c0-0.1,0-0.2,0-0.4c0-0.1,0-0.2,0-0.4c0-0.5,0.1-1,0.1-1.5
	c0.3-2.9,0.9-5.8,1.7-8.5c0.1-0.5,0.3-0.9,0.4-1.4c0-0.1,0.1-0.2,0.1-0.3c0.3-0.7,0.5-1.4,0.8-2.1c0.3-0.8,0.7-1.6,1.1-2.3
	c0.2-0.3,0.3-0.7,0.5-1c0.5-1,1.1-2,1.7-3c0.5-0.9,1.1-1.7,1.7-2.5c0,0,0.1-0.1,0.1-0.1c0.4-0.5,0.8-1.1,1.2-1.6
	c0.1-0.1,0.2-0.2,0.2-0.3c1.2-1.5,2.5-2.9,4-4.2c0.5-0.5,1-0.9,1.5-1.3c0.3-0.3,0.7-0.6,1-0.8c0.3-0.3,0.7-0.5,1-0.8
	c0.3-0.2,0.5-0.4,0.8-0.6c1.1-0.8,2.3-1.6,3.5-2.3c0.2-0.1,0.3-0.2,0.5-0.3c0.2-0.1,0.5-0.3,0.7-0.4c0.2-0.1,0.3-0.2,0.5-0.3
	c0.3-0.2,0.7-0.3,1-0.5c2.8-1.4,5.8-2.5,8.9-3.3c0.2,0,0.3-0.1,0.5-0.1c0.5-0.1,1-0.2,1.6-0.3c0.1,0,0.3-0.1,0.4-0.1
	c1.8-0.3,3.6-0.6,5.5-0.7c0.1,0,0.2,0,0.4,0c0.1,0,0.2,0,0.4,0c0,0,0.1,0,0.1,0V441.5z"/>
<g>
	<path class="st1" d="M-137.8,391.9l0.9,4.1c3.1,0.7,5.7,3.3,6.3,6.5c0.8,0,1.5,0,2.1,0c0.6,0,1.2,0,1.8,0
		C-127.4,396.7-132.1,392.4-137.8,391.9z"/>
</g>
<path class="st1" d="M-143.8,391.4l0.1,0.3l0.9,4.2l0.1,0.4l0.1,0.4l1.7,7.6c1.3-0.4,2.7-0.6,4.1-0.9l-1.5-6.7l-0.1-0.4l-0.1-0.4
	l-0.9-4.2l-0.1-0.4l-0.1-0.4l-0.2-0.7c-0.3-1.3-1.3-1.5-1.8-1.5c-0.7,0-1.4,0.3-1.8,0.9c-0.2,0.3-0.4,0.7-0.4,1.3
	C-143.9,391.1-143.9,391.2-143.8,391.4C-143.8,391.4-143.8,391.4-143.8,391.4z"/>
<path class="st1" d="M-155.1,399.6c-0.8,0-1.6,0.5-2,1.1c-0.4,0.6-0.4,1.3,0,2l3.5,6.6c1.2-0.7,2.4-1.4,3.7-2l-3.6-6.8
	C-153.9,399.8-154.6,399.6-155.1,399.6z"/>
<path class="st1" d="M-178.5,393.6l1.9,2.3l0.3,0.4l0.3,0.4l14.8,18.3c1-0.9,2.1-1.8,3.2-2.6l-12.7-15.7l-0.3-0.4l-0.3-0.4l-3.4-4.2
	l-0.3-0.4l-0.3-0.4l-0.3-0.4c-0.3-0.4-0.8-0.6-1.3-0.6c-0.6,0-1.2,0.2-1.6,0.6c-0.2,0.2-0.4,0.4-0.5,0.7c-0.1,0.1-0.1,0.3-0.1,0.4
	c0,0.1,0,0.3,0,0.4C-179,392.6-178.8,393.2-178.5,393.6z"/>
<path class="st1" d="M-178.4,411.6c-0.7,0-1.5,0.4-1.9,1.1c-0.7,1.2,0,2.2,0.8,2.9l10.5,8.1c0.8-1.1,1.6-2.2,2.5-3.3l-11-8.4
	C-177.7,411.7-178,411.6-178.4,411.6z"/>
<path class="st1" d="M-184.1,433.4l0.4,0.1l8.3,3.1c0.4-1.3,0.9-2.6,1.5-3.9l-9.7-3.6l-0.4-0.1l-0.4-0.1l-4-1.5
	c-0.1,0-0.1,0-0.2-0.1c-0.1,0-0.2,0-0.3,0h0c-0.1,0-0.2,0-0.4,0c-0.7,0.2-1.4,0.8-1.6,1.5c-0.3,1.3,0.5,2.2,1.5,2.6l0.1,0l0.4,0.1
	l0.4,0.1l4.2,1.5L-184.1,433.4z"/>
<path class="st2" d="M-130.4,408.2c0,0-0.1,0-0.1,0c-0.1,0-0.2,0-0.4,0c-0.1,0-0.2,0-0.4,0c-1.9,0.1-3.7,0.4-5.5,0.7
	c-0.1,0-0.3,0.1-0.4,0.1c-0.5,0.1-1,0.2-1.6,0.3c-0.2,0-0.3,0.1-0.5,0.1c-3.1,0.8-6.1,1.9-8.9,3.3c-0.3,0.2-0.7,0.3-1,0.5
	c-0.2,0.1-0.3,0.2-0.5,0.3c-0.2,0.1-0.5,0.3-0.7,0.4c-0.2,0.1-0.3,0.2-0.5,0.3c-1.2,0.7-2.4,1.5-3.5,2.3c-0.3,0.2-0.5,0.4-0.8,0.6
	c-0.3,0.3-0.7,0.5-1,0.8c-0.3,0.3-0.7,0.6-1,0.8c-0.5,0.4-1,0.9-1.5,1.3c-1.4,1.3-2.7,2.7-4,4.2c-0.1,0.1-0.2,0.2-0.2,0.3
	c-0.4,0.5-0.8,1.1-1.2,1.6c0,0-0.1,0.1-0.1,0.1c-0.6,0.8-1.2,1.7-1.7,2.5c-0.6,1-1.2,2-1.7,3c-0.2,0.3-0.4,0.7-0.5,1
	c-0.4,0.8-0.7,1.6-1.1,2.3c-0.3,0.7-0.6,1.4-0.8,2.1c0,0.1-0.1,0.2-0.1,0.3c-0.2,0.4-0.3,0.9-0.4,1.4c-0.8,2.7-1.4,5.6-1.7,8.5
	c0,0.5-0.1,1-0.1,1.5c0,0.1,0,0.2,0,0.4c0,0.1,0,0.2,0,0.4c0,0,0,0.1,0,0.1c0,0,0,0,0,0h33.5c0.5,0,1,0,1.4-0.1
	c0.2,0,0.3-0.1,0.5-0.1c0.2,0,0.4-0.1,0.6-0.2c0.2-0.1,0.4-0.1,0.6-0.2c0.5-0.2,1.1-0.5,1.6-0.8c0.1-0.1,0.2-0.1,0.3-0.2
	c0.3-0.2,0.6-0.5,0.8-0.7c0,0,0,0,0,0c1.6-1.5,2.5-3.7,2.5-6V408.2z M-167.1,445.4c0.9-6,2.7-12.1,6.4-17.4c1.5-2.3,3.4-4.4,5.6-6.3
	c3.1-2.7,6.9-5,11-6.6c3.3-1.3,6.8-2.2,10.4-2.8C-157,419-165,438.8-167.1,445.4z"/>
<path class="st1" d="M-172.2,447.7c0.3-2.9,0.9-5.8,1.7-8.5C-171.3,441.9-171.9,444.7-172.2,447.7z"/>
<path class="st1" d="M-149.5,413.6c-0.2,0.1-0.5,0.3-0.7,0.4c-0.2,0.1-0.3,0.2-0.5,0.3c0.2-0.1,0.3-0.2,0.5-0.3
	C-150,413.8-149.8,413.7-149.5,413.6z"/>
<path class="st1" d="M-168,433c-0.4,0.8-0.7,1.6-1.1,2.3c-0.3,0.7-0.6,1.4-0.8,2.1c0.3-0.7,0.5-1.4,0.8-2.1
	C-168.7,434.5-168.4,433.7-168,433z"/>
<path class="st1" d="M-154.2,416.5c-0.3,0.2-0.5,0.4-0.8,0.6c-0.3,0.3-0.7,0.5-1,0.8c0.3-0.3,0.7-0.5,1-0.8
	C-154.8,416.9-154.5,416.7-154.2,416.5z"/>
<path class="st1" d="M-156,417.9c-0.3,0.3-0.7,0.6-1,0.8c-0.5,0.4-1,0.9-1.5,1.3c0.5-0.5,1-0.9,1.5-1.3
	C-156.7,418.5-156.4,418.2-156,417.9z"/>
<path class="st1" d="M-139.1,409.5c0.2,0,0.3-0.1,0.5-0.1C-138.8,409.4-139,409.4-139.1,409.5c-3.1,0.8-6.1,1.9-8.9,3.3
	c-0.3,0.2-0.7,0.3-1,0.5c0.3-0.2,0.7-0.3,1-0.5C-145.2,411.4-142.3,410.3-139.1,409.5z"/>
<path class="st1" d="M-130.4,408.2v33.3c0,2.4-1,4.5-2.5,6c1.6-1.5,2.5-3.7,2.5-6L-130.4,408.2c0,0-0.1,0-0.1,0
	C-130.5,408.2-130.4,408.2-130.4,408.2z"/>
<path class="st1" d="M-131.2,408.3c0.1,0,0.2,0,0.4,0c0.1,0,0.2,0,0.4,0c-0.1,0-0.2,0-0.4,0C-131,408.2-131.1,408.2-131.2,408.3
	c-1.9,0.1-3.7,0.4-5.5,0.7c-0.1,0-0.3,0.1-0.4,0.1c0.1,0,0.3-0.1,0.4-0.1C-134.9,408.6-133.1,408.4-131.2,408.3z"/>
<path class="st1" d="M-178.1,449.8c-3.8-0.9-6.5-4.3-6.5-8.2v-5.4V435l-3.9-1.4v2.7v5.4c0,6,4.5,11.2,10.4,12.2c0-0.6,0-1.1,0-1.6
	C-178.1,451.4-178.1,450.6-178.1,449.8z"/>
<g>
	<polygon class="st1" points="-167.9,391.8 -172.3,391.8 -169.2,395.7 -167.9,395.7 -144.6,395.7 -145.4,391.8 	"/>
</g>
<g>
	<path class="st1" d="M-188.5,404.2v21.4l3.9,1.4v-22.8c0-3.8,2.6-7.1,6.1-8.1l-2.6-3.2C-185.5,394.8-188.5,399.3-188.5,404.2z"/>
</g>
<g>
	<g>
		<g>
			<polygon class="st1" points="-103.2,414.3 -109.5,422.4 -109.5,425.1 -97.5,425.1 -97.5,422.4 -105.6,422.4 -99.3,414.3 			"/>
			<polygon class="st1" points="-97.6,412.2 -97.6,409.5 -109.3,409.5 -109.3,412.2 -97.6,412.2 			"/>
		</g>
		<g>
			<path class="st1" d="M-87.1,409.5h-3.7l-4.4,12.3h3.3h5.7l1,3.2h3.5L-87.1,409.5z M-91,419.2l2-6.1l2,6.1H-91z"/>
		</g>
		<polygon class="st1" points="-37.7,409.5 -37.7,420.4 -43.9,409.5 -47.3,409.5 -47.3,421.7 -44.3,421.7 -44.3,414.1 -38,425.1 
			-34.7,425.1 -34.7,409.5 		"/>
		<g>
			<path class="st1" d="M-54.7,409.5h-3.7l-4.4,12.3h3.3h5.7l1,3.2h3.5L-54.7,409.5z M-58.6,419.2l2-6.1l2,6.1H-58.6z"/>
		</g>
		<g>
			<path class="st1" d="M-75.9,421.3c-0.8-0.9-1.1-2.3-1.1-4s0.4-3.1,1.1-4c0.6-0.7,1.3-1.2,2.2-1.3v-2.8c-1.8,0.1-3.2,0.7-4.2,1.8
				c-1.6,1.4-2.4,3.6-2.4,6.4c0,2.8,0.8,4.9,2.4,6.4c1,1,2.4,1.6,4.2,1.8v-2.8C-74.5,422.5-75.3,422.1-75.9,421.3z"/>
			<path class="st1" d="M-65.3,417.3c0-2.8-0.8-5-2.4-6.4c-1-1-2.4-1.6-4.2-1.8v2.8c0.9,0.2,1.6,0.6,2.2,1.3c0.8,1,1.1,2.3,1.1,4
				c0,1.8-0.4,3.1-1.1,4c-0.6,0.7-1.3,1.2-2.2,1.3v2.8c1.8-0.1,3.2-0.7,4.2-1.8C-66.1,422.2-65.3,420.1-65.3,417.3z"/>
		</g>
	</g>
	<g>
		<g>
			<path class="st1" d="M-106.4,440.8V438h3.4c0.7,0,1.4,0.1,1.8,0.2c0.6,0.2,0.8,0.7,0.8,1.4c0,0.5-0.1,0.9-0.3,1.1h3.2
				c0.2-0.4,0.3-0.9,0.3-1.5c0-0.9-0.2-1.7-0.7-2.4c-0.8-1.1-2.1-1.6-4-1.7h-7.5v6.1h3.1V440.8z"/>
			<path class="st1" d="M-100.1,445.9c0,1-0.3,1.6-1,1.9c-0.4,0.2-0.9,0.3-1.6,0.3h-3.8v-3.5V444v0h-3.1v6.9h7
				c0.8,0,1.5-0.1,2.2-0.2c0.7-0.1,1.3-0.4,1.8-0.8c0.4-0.3,0.8-0.7,1.1-1.2c0.5-0.7,0.7-1.6,0.7-2.5c0-0.6-0.1-1.1-0.3-1.5h-3.5
				C-100.2,444.9-100.1,445.3-100.1,445.9z"/>
			<g>
				<polygon class="st1" points="-102.7,441.4 -106.4,441.4 -106.4,444 -100.7,444 -100.7,441.4 				"/>
			</g>
		</g>
		<g>
			<path class="st1" d="M-81.9,448.1v-1c0-1.1-0.1-1.9-0.4-2.4c-0.3-0.5-0.8-0.9-1.5-1.2c0.9-0.3,1.5-0.8,1.8-1.5
				c0.4-0.7,0.6-1.4,0.6-2.2c0-0.6-0.1-1.2-0.3-1.6c-0.2-0.5-0.5-0.9-0.8-1.3c-0.4-0.5-0.9-0.8-1.5-1.1c-0.6-0.2-1.4-0.4-2.5-0.4
				h-7.4v15.5h3.2v-6.1h3.2c0.9,0,1.5,0.2,1.9,0.5c0.3,0.3,0.5,1,0.5,2l0,0.9L-81.9,448.1C-81.9,448.1-81.9,448.1-81.9,448.1z
				 M-85.7,441.9c-0.3,0.2-0.9,0.3-1.6,0.3h-3.5V438h3.6c0.7,0,1.2,0.1,1.5,0.3c0.6,0.3,0.9,1,0.9,1.9
				C-84.8,441-85.1,441.6-85.7,441.9z"/>
		</g>
		<g>
			<polygon class="st1" points="-70.8,438 -66.9,438 -66.9,435.3 -78.3,435.3 -78.3,438 -75.1,438 			"/>
			<polygon class="st1" points="-75.1,448 -75.1,444 -67.6,444 -67.6,441.3 -75.1,441.3 -75.1,439.6 -78.3,439.6 -78.3,450.8 
				-66.5,450.8 -66.5,448 			"/>
		</g>
		<g>
			<path class="st1" d="M-55.9,435.3h-3.7l-4.4,12.3h3.3h5.7l1,3.2h3.5L-55.9,435.3z M-59.8,444.9l2-6.1l2,6.1H-59.8z"/>
		</g>
		<g>
			<polygon class="st1" points="-45.2,441.7 -45.2,437.1 -45.2,435.3 -48.4,435.3 -48.4,450.8 -45.2,450.8 -45.2,445.6 			"/>
			<polygon class="st1" points="-41.3,441.7 -35,435.3 -39.2,435.3 -43.6,440 -43.6,444 -43.6,444 -38.8,450.8 -34.6,450.8 			"/>
		</g>
		<g>
			<polygon class="st1" points="-26.8,438 -21.7,438 -21.7,435.3 -32.8,435.3 -32.8,438 -29.6,438 			"/>
			<polygon class="st1" points="-32.8,439.6 -32.8,450.8 -29.6,450.8 -29.6,444.3 -22.7,444.3 -22.7,441.6 -29.6,441.6 -29.6,439.6 
							"/>
		</g>
		<g>
			<path class="st1" d="M-12.7,435.3h-3.7l-4.4,12.3h3.3h5.7l1,3.2h3.5L-12.7,435.3z M-16.6,444.9l2-6.1l2,6.1H-16.6z"/>
		</g>
		<g>
			<rect x="12.6" y="439.6" class="st1" width="3.3" height="11.2"/>
			<polygon class="st1" points="7.9,435.3 7.9,438 11,438 12.6,438 15.8,438 17.4,438 20.5,438 20.5,435.3 			"/>
		</g>
		<g>
			<path class="st1" d="M0.3,434.8c-2,0-3.5,0.5-4.5,1.4c-1,0.9-1.5,2.1-1.5,3.5c0,1.5,0.5,2.6,1.6,3.4c0.6,0.4,1.8,0.8,3.4,1.2
				l1.7,0.4c1,0.2,1.7,0.5,2.2,0.7c0.5,0.3,0.7,0.7,0.7,1.2c0,0.9-0.5,1.5-1.4,1.8c-0.5,0.2-1.1,0.3-1.9,0.3c-1.3,0-2.2-0.3-2.8-1
				c-0.3-0.4-0.5-0.9-0.6-1.6H-6c0,1.6,0.6,2.9,1.8,3.8c1.2,0.9,2.8,1.4,4.8,1.4c2,0,3.6-0.5,4.7-1.4c1.1-0.9,1.6-2.1,1.6-3.5
				c0-1.4-0.5-2.4-1.4-3.2c-0.6-0.5-1.5-0.8-2.7-1.1l-2.7-0.6c-1.1-0.2-1.7-0.5-2.1-0.6c-0.5-0.3-0.8-0.7-0.8-1.2
				c0-0.6,0.3-1.1,0.8-1.4c0.5-0.3,1.2-0.5,2.1-0.5c0.1,0,0.2,0,0.4,0v-2.7C0.4,434.8,0.4,434.8,0.3,434.8z"/>
		</g>
	</g>
</g>
</svg>
